<svg id="Layer_1" data-name="Layer 1" xmlns="http://www.w3.org/2000/svg" xmlns:xlink="http://www.w3.org/1999/xlink" viewBox="0 0 1372.89 768.13"><defs><style>.cls-1{fill:url(#linear-gradient);}</style><linearGradient id="linear-gradient" x1="535.04" y1="292.61" x2="1131.14" y2="645.32" gradientUnits="userSpaceOnUse"><stop offset="0.04" stop-color="#00acb4"/><stop offset="0.48" stop-color="#7f94b0" stop-opacity="0.5"/><stop offset="0.83" stop-color="#db82ad" stop-opacity="0.14"/><stop offset="1" stop-color="#ff7bac" stop-opacity="0"/></linearGradient></defs><path class="cls-1" d="M1372.89,0s-720.42,2.5-717,0-180.54,158.5-324.54,180.5-318-53-324.5,47c0,0-15.5,549,0,540.49s22.5-50.5,27.5-67.5,26-79,34-17,34,108,49,32,85-159,100-74,1,141,32,111,43-65,41-89,20-72,45-47,6,234,47,108,72-70,90-41,54,119,79,17,50-103,80-51,93,171,101,63,131-59,106-7,59,63,107,26,93,38,131-22,98-18,152,21,60-58,102-19,42.5,22.85,42.5,22.85Z"/></svg>